<svg width="412" height="123" viewBox="0 0 412 123" fill="none" xmlns="http://www.w3.org/2000/svg">
<mask id="mask0_2003_21531" style="mask-type:alpha" maskUnits="userSpaceOnUse" x="0" y="3" width="412" height="120">
<rect y="3" width="412" height="120" fill="black"/>
</mask>
<g mask="url(#mask0_2003_21531)">
<mask id="mask1_2003_21531" style="mask-type:alpha" maskUnits="userSpaceOnUse" x="0" y="-87" width="412" height="210">
<rect y="-87" width="412" height="210" fill="black"/>
</mask>
<g mask="url(#mask1_2003_21531)">
<path d="M412.09 -104.646V170.081H0V-89.738C39.761 -27.3832 109.147 102.478 204.415 103.172C328.009 104.073 377.119 -46.8875 394.665 -104.646H412.09Z" fill="#3F557A"/>
<path d="M244.066 74.8993V86.955C244.066 86.955 229.075 92.1642 228.969 88.5201C228.863 84.8761 244.066 74.8993 244.066 74.8993Z" fill="#222F59"/>
<path d="M200.742 38.7952C206.464 36.2557 217.494 34.1131 223.037 32.1554C225.591 31.2535 231.127 27.7598 230.525 25.119C229.778 21.8441 225.775 23.7489 224.508 14.7352C223.613 8.36092 216.139 5.71029 208.833 8.71859C204.226 7.74447 202.865 10.3812 200.917 16.3184C199.583 20.3853 197.019 29.6773 196.608 35.9085C196.462 38.1195 198.716 39.6937 200.742 38.7952Z" fill="#A6374A"/>
<path d="M188.379 105.927L163.71 106.119L164.443 104.001L180.258 94.524L190.337 95.2682L188.379 105.927Z" fill="white"/>
<path d="M229.3 87.3566C229.3 87.3566 234.009 88.9925 247.467 83.7411C241.698 58.9491 239.788 50.6764 229.905 38.2069C222.768 31.4391 216.14 35.2809 210.044 42.6036C203.979 49.8895 211.538 59.3002 212.757 70.5113C213.976 81.7225 222.235 87.5297 222.235 87.5297L229.3 87.3566Z" fill="#C0CAE2"/>
<path d="M170.07 97.7656C176.376 69.6765 187.556 46.627 200.475 46.4536C214.089 46.2712 227.141 86.7302 229.299 87.3567C237.175 89.6448 244.065 86.9556 244.065 86.9556C244.065 86.9556 244.136 104.645 229.548 105.3C212.715 106.057 203.688 91.6841 201.444 63.811C199.494 72.0974 193.614 100.613 193.614 100.613C193.614 100.613 173.58 101.985 170.07 97.7656Z" fill="#46588C"/>
<path d="M210.708 53.0289C210.258 50.5841 214.081 45.4301 214.081 45.4301L216.14 57.3263C216.14 57.3263 211.078 55.0326 210.708 53.0289Z" fill="#222F59"/>
<path d="M228.25 98.7896C224.478 98.7896 220.56 96.5186 218.25 92.8333C216.758 90.4539 215.526 85.6956 214.099 80.186C211.298 69.3718 207.813 55.9131 200.719 55.9131C197.281 55.9131 192.826 62.8518 187.836 75.979C184.363 85.1147 181.745 94.3613 181.305 95.9431C182.628 96.2305 189.21 97.5647 194.312 96.8521L194.377 97.3147C188.618 98.1189 181.037 96.3628 180.961 96.3452L180.725 96.2896L180.789 96.0562C180.816 95.9548 183.595 85.8198 187.398 75.8154C192.536 62.2993 197.017 55.446 200.719 55.446C204.058 55.446 206.896 58.1392 209.394 63.6799C211.538 68.4341 213.139 74.6152 214.551 80.0688C215.968 85.541 217.192 90.2668 218.645 92.585C221.231 96.7104 225.894 98.9968 229.984 98.1465C233.982 97.3152 236.65 93.7761 237.495 88.1816L237.957 88.2515C236.775 96.0793 232.514 98.0979 230.079 98.604C229.479 98.729 228.866 98.7896 228.25 98.7896Z" fill="#222F59"/>
<path d="M198.672 66.295C198.672 66.295 191.14 65.0545 190.349 63.3043C189.854 62.2069 190.108 56.9058 188.202 56.6353C187.129 56.483 188.45 58.2078 187.293 58.9647C185.73 57.8021 186.115 56.201 183.816 57.971C179.29 61.4561 181.114 66.8787 183.254 68.5201C184.467 69.45 187.381 69.941 189.685 71.3028C191.988 72.6658 198.672 74.8995 198.672 74.8995V66.295Z" fill="#F19B9A"/>
<path d="M183.816 61.0641C183.732 61.0641 183.665 60.9965 183.665 60.9127V57.9708C183.665 57.8871 183.732 57.819 183.816 57.819C183.9 57.819 183.968 57.8871 183.968 57.9708V60.9127C183.968 60.9965 183.9 61.0641 183.816 61.0641Z" fill="#222F59"/>
<path d="M182.043 62.9506C181.96 62.9506 181.892 62.8824 181.892 62.7987V59.8663C181.892 59.7828 181.96 59.7147 182.043 59.7147C182.127 59.7147 182.196 59.7828 182.196 59.8663V62.7987C182.196 62.8824 182.127 62.9506 182.043 62.9506Z" fill="#222F59"/>
<path d="M220.557 21.1222C220.557 26.8949 213.538 33.4732 209.364 33.4732C205.189 33.4732 202.787 28.7938 202.787 23.0211C202.787 17.2485 206.404 11.0542 210.576 10.9206C217.701 10.6926 220.557 15.3493 220.557 21.1222Z" fill="#F19B9A"/>
<path d="M210.044 28.9192L213.844 39.0522L222.235 36.0439L218.119 25.1191L210.044 28.9192Z" fill="#F19B9A"/>
<path d="M205.747 21.5996C205.747 21.9275 205.481 22.1931 205.153 22.1931C204.825 22.1931 204.559 21.9275 204.559 21.5996C204.559 21.2717 204.825 21.0054 205.153 21.0054C205.481 21.0054 205.747 21.2717 205.747 21.5996Z" fill="#222F59"/>
<path d="M211.303 21.5996C211.303 21.9275 211.038 22.1931 210.709 22.1931C210.382 22.1931 210.116 21.9275 210.116 21.5996C210.116 21.2717 210.382 21.0054 210.709 21.0054C211.038 21.0054 211.303 21.2717 211.303 21.5996Z" fill="#222F59"/>
<path d="M206.676 28.8613L206.243 28.6867C206.254 28.6606 206.51 28.0446 207.258 27.7641C207.991 27.4892 208.917 27.6313 210.01 28.1869L209.798 28.6035C208.827 28.1096 208.028 27.9743 207.421 28.2016C206.872 28.4074 206.678 28.8566 206.676 28.8613Z" fill="#222F59"/>
<path d="M207.766 25.7531C207.402 25.7531 207.017 25.7347 206.685 25.6793C206.453 25.6405 206.294 25.4847 206.237 25.2406C206.027 24.3339 207.364 21.9423 207.579 21.7887L207.851 22.1686C207.867 22.1571 207.876 22.1469 207.876 22.1469C207.646 22.41 206.501 24.6027 206.701 25.1639C206.716 25.2064 206.732 25.213 206.761 25.2181C207.668 25.3693 209.058 25.2179 209.072 25.2164L209.124 25.681C209.085 25.6849 208.463 25.7531 207.766 25.7531Z" fill="#222F59"/>
<path d="M211.57 32.9886C211.57 32.9886 214.15 31.5321 216.593 28.9323C215.682 33.2797 212.313 34.9703 212.313 34.9703L211.57 32.9886Z" fill="#222F59"/>
<path d="M228.969 53.1702L225.775 81.0759L227.557 84.6782C227.557 84.6782 230.849 84.2258 232.03 81.8674C233.83 78.2715 233.527 71.9338 228.969 53.1702Z" fill="#222F59"/>
<path d="M203.872 20.3419L203.505 20.0533C203.545 20.0023 204.505 18.8177 206.491 19.5839L206.323 20.0199C204.656 19.3768 203.88 20.3324 203.872 20.3419Z" fill="#222F59"/>
<path d="M212.163 20.3273C211.48 19.3044 209.519 19.9587 209.498 19.9655L209.347 19.5234C209.441 19.4909 211.67 18.746 212.552 20.0683L212.163 20.3273Z" fill="#222F59"/>
<path d="M200.72 20.1975C200.72 20.1975 200.364 25.1191 211.672 14.6957C215.089 15.883 214.732 17.4267 215.574 20.385C216.127 22.3299 219.098 27.7187 219.098 27.7187L223.995 25.1191C223.995 25.1191 223.058 13.0332 220.558 11.6081C218.057 10.183 210.576 9.38561 206.895 10.9123C203.213 12.4391 200.72 20.1975 200.72 20.1975Z" fill="#A6374A"/>
<path d="M215.643 22.7707C215.643 22.7707 217.84 17.7292 219.471 21.0056C220.903 23.8815 217.067 25.1193 217.067 25.1193L215.643 22.7707Z" fill="#F19B9A"/>
<path d="M218.547 22.5823C218.368 22.0399 218.146 21.7173 217.94 21.6971C217.677 21.6719 217.349 22.0972 217.231 22.3069L216.824 22.0784C216.876 21.9857 217.352 21.1715 217.985 21.2322C218.407 21.2728 218.736 21.6663 218.991 22.4354L218.547 22.5823Z" fill="#222F59"/>
<path d="M220.558 84.2341C219.865 84.2341 219.167 84.1479 218.481 83.9736L189.568 74.8997C189.568 74.8997 186.003 65.3142 193.477 62.0762C198.235 62.8362 213.391 66.8262 213.391 66.8262L212.147 51.7991C211.672 45.4302 215.913 40.939 220.558 40.939C227.32 40.939 228.97 47.1536 228.97 51.7991V75.8228C228.97 78.4194 227.77 80.8706 225.72 82.4639C224.228 83.6233 222.408 84.2341 220.558 84.2341Z" fill="#C0CAE2"/>
<path d="M228.901 59.4436C228.74 42.5181 225.186 41.1726 220.558 41.1726V40.7053C222.743 40.7053 225.015 40.9219 226.67 43.512C228.433 46.2715 229.292 51.3323 229.369 59.4395L228.901 59.4436Z" fill="#222F59"/>
<mask id="mask2_2003_21531" style="mask-type:alpha" maskUnits="userSpaceOnUse" x="0" y="-105" width="413" height="276">
<rect y="-104.646" width="412.09" height="274.727" fill="black"/>
</mask>
<g mask="url(#mask2_2003_21531)">
<path d="M140.04 54.8696C120.947 59.9668 94.2532 62.3772 83.4116 69.9951C79.8938 72.4671 73.9586 77.7632 69.1525 82.199C64.2225 77.6668 59.4588 75.6787 56.2146 77.3855C56.1485 77.4202 56.0847 77.4578 56.0203 77.4954C56.0581 77.4072 56.095 77.3191 56.1337 77.2312C51.0112 79.3784 45.7967 81.6355 40.5507 83.9644C-11.0729 106.883 -65.7358 136.743 -65.7358 136.743L-35.606 189.133C-35.606 189.133 45.8059 155.896 84.9185 131.181C84.9136 131.179 84.9088 131.177 84.9041 131.174C87.9821 129.271 88.9204 124.138 87.8938 117.492C91.4509 116.318 94.6747 115.379 95.6516 115.469C103.592 116.199 119.585 107.949 123.615 101.481C124.883 99.4468 126.218 96.8718 122.551 93.6199C123.65 91.5925 120.76 82.7471 117.71 82.8809C118.005 78.5772 115.052 73.2764 114.303 72.0095C114.382 71.8862 114.458 71.7605 114.531 71.6328C117.074 71.0237 131.28 67.562 141.554 63.8491C146.688 61.9946 145.411 53.4356 140.04 54.8696Z" fill="#18234C"/>
<path d="M308.322 -26.3475C312.35 -26.2465 311.384 -20.5924 310.727 -13.426C309.65 -1.6938 322.576 10.565 321.467 -9.52522C321.036 -17.3447 329.466 -27.155 332.816 -32.1762C333.244 -32.8187 334.027 -33.4583 335.066 -34.0853C339.245 -26.294 344.353 -21.5952 348.552 -22.4224C348.55 -22.4176 348.549 -22.4127 348.546 -22.4079C392.547 -30.6247 472.151 -60.6368 472.151 -60.6368L459.036 -117.616C459.036 -117.616 388.146 -99.6528 333.451 -79.6082C333.535 -79.5717 333.617 -79.532 333.701 -79.4948C333.632 -79.4792 333.563 -79.4644 333.495 -79.4459C330.501 -78.6369 328.543 -75.0602 327.755 -69.8565C325.497 -69.3672 323.491 -69.0216 322 -68.9226C315.379 -68.4824 301.495 -69.0558 294.957 -67.9197C290.308 -67.1119 281.362 -63.7797 278.461 -60.0587C277.161 -58.3926 275.814 -52.736 280.103 -51.7774C277.164 -49.4478 278.034 -43.0521 280.711 -42.5876C277.983 -40.324 275.765 -29.2056 280.975 -29.9892C280.792 -29.82 280.618 -29.6508 280.455 -29.4821L280.9 -29.7559C279.91 -27.1008 278.799 -21.2677 286.24 -20.8881C293.909 -20.4968 304.294 -26.4486 308.322 -26.3475Z" fill="#18234C"/>
<path d="M349.469 64.784C349.518 64.869 349.566 64.9542 349.614 65.0396C349.544 65.0086 349.475 64.9779 349.404 64.95C345.91 63.5799 341.288 66.1405 336.784 71.3094C331.393 67.3385 324.755 62.6202 320.897 60.5028C309.005 53.9766 281.572 54.5394 261.571 51.5096C255.944 50.6573 255.611 59.5096 261.044 60.8175C271.918 63.4342 286.763 65.3514 289.419 65.6844C289.507 65.806 289.599 65.9254 289.693 66.0418C289.075 67.4154 286.668 73.1424 287.454 77.4881C284.336 77.6964 282.396 87.0228 283.743 88.9613C280.378 92.6844 282.028 95.1536 283.547 97.0802C288.378 103.206 305.584 109.793 313.58 108.154C314.564 107.952 317.95 108.543 321.702 109.335C321.408 116.214 322.943 121.331 326.289 122.919C326.285 122.922 326.28 122.925 326.275 122.928C368.863 143.656 455.453 168.277 455.453 168.277L480.19 111.569C480.19 111.569 408.601 82.1917 349.469 64.784Z" fill="#18234C"/>
<path d="M56.5896 -54.4828C56.5896 -54.4828 83.324 -47.2734 86.5745 -41.5558C89.8254 -35.8383 98.2244 -24.5208 97.1475 -16.056C94.3813 5.69214 109.382 -6.62592 109.124 -19.4607C108.967 -27.3 108.356 -33.5201 112.742 -33.3169C117.127 -33.1136 127.951 -25.8377 136.316 -25.6669C144.682 -25.4958 143.625 -32.3272 142.73 -35.1521C148.351 -33.8661 146.804 -46.1457 144.012 -48.8206C146.958 -49.1172 148.401 -56.0007 145.387 -58.761C150.124 -59.4692 149.099 -65.7217 147.817 -67.6334C144.953 -71.9031 135.489 -76.22 130.5 -77.4594C123.482 -79.2025 108.349 -79.6584 101.186 -80.6518C93.082 -81.7754 71.2983 -90.6696 71.2983 -90.6696L56.5896 -54.4828Z" fill="#F19B9A"/>
<path d="M32.2294 90.6268C40.0678 105.529 51.2952 115.045 57.3069 111.883C63.3182 108.721 61.8375 94.0775 53.999 79.1761C46.1608 64.2742 34.9332 54.7574 28.9218 57.9197C22.91 61.0819 24.391 75.7252 32.2294 90.6268Z" fill="#03091C"/>
<path d="M8.17383 82.8683L34.2133 69.9352C34.2133 69.9352 49.4761 55.1971 56.1187 50.5294C66.9601 42.9117 93.6543 40.5011 112.747 35.4039C118.118 33.9701 119.395 42.5287 114.261 44.3839C102.938 48.4752 86.8395 52.2621 86.8395 52.2621C86.8395 52.2621 90.7545 58.4911 90.4172 63.4156C93.4668 63.2816 96.3566 72.127 95.2581 74.1541C98.9246 77.4059 97.5895 79.9813 96.322 82.0155C92.2922 88.4828 76.2987 96.7335 68.3586 96.0035C65.8682 95.7743 48.78 102.227 48.78 102.227L25.9681 109.865L8.17383 82.8683Z" fill="#F19B9A"/>
<path d="M63.1002 70.6194C62.9616 70.6194 62.822 70.5792 62.6991 70.4947C62.3764 70.2728 62.2951 69.8316 62.5169 69.5091C62.73 69.1988 67.8034 61.8841 73.3606 59.4463C74.1059 59.1194 75.0036 58.7769 75.9546 58.4144C77.9608 57.6495 80.4575 56.6976 82.8921 55.3685C85.0937 54.1666 88.7417 50.8533 86.7923 46.9144C86.772 46.8738 86.711 46.7501 86.4113 46.6543C85.2317 46.2772 81.293 46.5442 68.1685 52.5757C60.6092 56.0499 53.6276 59.7847 53.5578 59.8221C53.2128 60.0069 52.7835 59.8772 52.5987 59.5323C52.4137 59.1873 52.5434 58.7576 52.8883 58.5726C52.9584 58.535 59.9782 54.7796 67.5767 51.2876C72.0498 49.232 75.8494 47.6666 78.8699 46.6351C82.8185 45.2867 85.4269 44.8514 86.843 45.3043C87.4214 45.4891 87.8316 45.8194 88.0626 46.2855C90.49 51.19 86.1862 55.1854 83.5716 56.6126C81.0523 57.9878 78.5059 58.9588 76.4597 59.7388C75.4846 60.1106 74.6432 60.4314 73.9301 60.7444C68.7388 63.0215 63.7345 70.2393 63.6848 70.3121C63.5475 70.512 63.3258 70.6194 63.1002 70.6194Z" fill="#5A0F1F"/>
<path d="M71.7973 74.113C70.6594 74.113 69.76 73.6804 69.1264 73.2219C66.8989 71.6103 65.9218 68.3432 66.1338 66.0871C66.1701 65.6975 66.5156 65.4116 66.9052 65.4477C67.2949 65.4844 67.5813 65.8298 67.5449 66.2197C67.3713 68.0698 68.2443 70.8337 69.9575 72.0735C70.9568 72.7969 72.0979 72.8867 73.3481 72.3408C73.7231 72.177 74.1108 72.0085 74.5083 71.8362C79.9338 69.4795 87.3642 66.2519 89.8535 62.9858C90.0905 62.6743 90.5356 62.6147 90.8466 62.8515C91.1582 63.0886 91.218 63.5339 90.9807 63.845C88.268 67.405 80.6416 70.7175 75.0727 73.1362C74.6762 73.3083 74.2895 73.4763 73.9152 73.6399C73.1386 73.9785 72.4309 74.113 71.7973 74.113Z" fill="#5A0F1F"/>
<path d="M77.0807 83.4637C75.4217 83.4637 73.7545 82.6082 72.4408 81.0089C70.8692 79.0955 69.9083 75.9859 71.5106 73.6795C71.7337 73.358 72.1754 73.2784 72.4969 73.5018C72.8184 73.7252 72.8978 74.1668 72.6746 74.4883C71.4923 76.1898 72.2923 78.5948 73.536 80.1089C74.6451 81.4593 76.5216 82.6006 78.4615 81.7537C79.9466 81.1055 81.565 80.4935 83.2782 79.846C87.94 78.084 92.7608 76.2618 94.6944 73.7242C94.9317 73.4131 95.3761 73.3531 95.6878 73.5904C95.9989 73.8277 96.0589 74.2723 95.8219 74.5836C93.6419 77.4442 88.628 79.3397 83.7791 81.1724C82.0831 81.8131 80.481 82.4188 79.0286 83.053C78.3956 83.3292 77.7389 83.4637 77.0807 83.4637Z" fill="#5A0F1F"/>
<path d="M80.0382 93.6994C78.4906 93.6994 77.0206 92.8654 76.0131 91.3271C74.5626 89.1125 74.3016 85.5212 77.1571 82.871C77.444 82.6049 77.8925 82.6213 78.1588 82.9086C78.4252 83.1952 78.4083 83.644 78.1212 83.9101C75.8685 86.0011 76.0641 88.8178 77.1991 90.5507C77.9992 91.7721 79.4996 92.7958 81.3112 92.005C81.67 91.8485 82.0875 92.0121 82.2443 92.371C82.4005 92.7296 82.2369 93.1474 81.8783 93.3041C81.2684 93.57 80.6473 93.6994 80.0382 93.6994Z" fill="#5A0F1F"/>
<path d="M-62.899 169.667C-62.899 169.667 18.5127 136.43 57.6254 111.716C36.5667 101.098 20.0008 77.8636 28.8408 57.7657C-26.6918 81.0399 -93.0288 117.278 -93.0288 117.278L-62.899 169.667Z" fill="#C0CAE2"/>
<path d="M27.9404 112.936C27.7492 112.936 27.5578 112.867 27.4071 112.727C21.9946 107.694 17.8416 102.017 15.0637 95.8532C12.8387 90.9167 11.4872 85.6616 11.0462 80.2333C10.295 70.9846 12.4238 64.5197 12.5149 64.2492C12.6528 63.8388 13.0971 63.6181 13.5073 63.7563C13.9174 63.8937 14.138 64.3381 14.0007 64.7482C13.9792 64.812 11.874 71.2314 12.614 80.176C13.2951 88.4074 16.5995 100.538 28.4742 111.578C28.791 111.873 28.8092 112.369 28.5144 112.686C28.3601 112.852 28.1506 112.936 27.9404 112.936Z" fill="#18234C"/>
<path d="M374.016 83.3029C367.724 99.3505 357.375 110.302 350.901 107.764C344.427 105.226 344.28 90.1586 350.572 74.1113C356.864 58.0639 367.213 47.1125 373.686 49.6508C380.16 52.1889 380.308 67.2558 374.016 83.3029Z" fill="#03091C"/>
<path d="M397.614 72.6914L369.659 62.4739C369.659 62.4739 352.465 49.2027 345.179 45.2039C333.287 38.6778 305.854 39.2405 285.853 36.2105C280.226 35.3584 279.893 44.211 285.326 45.5186C297.309 48.4024 314.117 50.4371 314.117 50.4371C314.117 50.4371 310.836 57.2171 311.736 62.189C308.619 62.3977 306.677 71.7239 308.023 73.6626C304.661 77.3853 306.31 79.8548 307.829 81.7815C312.66 87.9068 329.865 94.4947 337.861 92.855C340.37 92.3406 358.485 96.9761 358.485 96.9761L382.558 102.17L397.614 72.6914Z" fill="#F19B9A"/>
<path d="M340.264 66.4378C340.061 66.4378 339.859 66.3528 339.715 66.1871C339.656 66.1187 333.742 59.3379 328.21 57.6089C327.449 57.3714 326.556 57.1399 325.523 56.8719C323.353 56.3091 320.652 55.6089 317.933 54.4942C315.112 53.3375 310.281 49.7584 312.198 44.4944C312.38 43.994 312.76 43.6119 313.327 43.358C314.717 42.7369 317.42 42.8853 321.59 43.8116C324.78 44.5201 328.823 45.6834 333.606 47.2696C341.732 49.9644 349.299 52.9922 349.374 53.0228C349.746 53.1717 349.927 53.5941 349.777 53.9661C349.628 54.3379 349.206 54.5186 348.834 54.3694C348.759 54.3394 341.228 51.3257 333.143 48.6451C319.113 43.9927 315.077 44.1658 313.919 44.6829C313.625 44.814 313.576 44.9471 313.561 44.9905C312.022 49.2186 316.108 52.1778 318.485 53.1519C321.112 54.2288 323.76 54.9156 325.886 55.4671C326.896 55.7288 327.848 55.9756 328.643 56.2239C334.573 58.077 340.561 64.9463 340.813 65.2379C341.075 65.5411 341.042 65.9988 340.739 66.261C340.602 66.3797 340.433 66.4378 340.264 66.4378Z" fill="#5A0F1F"/>
<path d="M331.369 70.999C330.857 70.999 330.295 70.9184 329.682 70.728C329.283 70.6039 328.871 70.477 328.447 70.3464C322.508 68.5146 314.374 66.0053 311.212 62.6899C310.935 62.3998 310.946 61.9409 311.236 61.6642C311.527 61.3874 311.985 61.3986 312.261 61.6884C315.164 64.7304 323.089 67.175 328.875 68.9599C329.299 69.0905 329.712 69.2182 330.112 69.3422C331.446 69.7563 332.597 69.5363 333.532 68.6872C335.135 67.2328 335.712 64.3215 335.326 62.4589C335.244 62.0663 335.497 61.6823 335.889 61.601C336.281 61.5197 336.666 61.7721 336.747 62.1647C337.216 64.436 336.592 67.8703 334.507 69.7617C333.829 70.3776 332.792 70.999 331.369 70.999Z" fill="#5A0F1F"/>
<path d="M327.029 81.1118C326.535 81.1118 326.037 81.0371 325.542 80.8836C323.993 80.4026 322.295 79.9673 320.496 79.5061C315.356 78.1895 310.04 76.8276 307.499 74.1633C307.222 73.8733 307.234 73.4141 307.524 73.1377C307.814 72.8611 308.273 72.8718 308.549 73.1621C310.803 75.5252 315.914 76.8345 320.857 78.1011C322.673 78.5662 324.389 79.0059 325.973 79.4976C328.042 80.1401 329.822 78.7671 330.799 77.2676C331.893 75.5867 332.436 73.0493 331.04 71.4512C330.777 71.1494 330.807 70.6909 331.11 70.4273C331.411 70.1641 331.87 70.1948 332.133 70.4966C334.025 72.6626 333.398 75.9351 332.014 78.0593C330.736 80.0242 328.913 81.1118 327.029 81.1118Z" fill="#5A0F1F"/>
<path d="M325.226 91.8566C324.76 91.8566 324.282 91.784 323.801 91.6349C323.419 91.5162 323.205 91.1095 323.324 90.7269C323.442 90.3443 323.849 90.1302 324.232 90.2491C326.165 90.8492 327.576 89.6385 328.252 88.3048C329.211 86.4139 329.091 83.5255 326.563 81.6525C326.241 81.4139 326.173 80.9598 326.412 80.638C326.65 80.3158 327.105 80.2479 327.427 80.4867C330.632 82.8607 330.772 86.5438 329.545 88.961C328.607 90.8129 326.998 91.8566 325.226 91.8566Z" fill="#5A0F1F"/>
<path d="M479.735 152.978C479.735 152.978 393.145 128.357 350.557 107.629C370.785 94.4463 385.015 68.9351 373.751 49.4849C432.883 66.8926 504.472 96.27 504.472 96.27L479.735 152.978Z" fill="#46588C"/>
<path d="M363.539 114.319C363.266 114.319 362.999 114.179 362.849 113.927C362.622 113.546 362.747 113.054 363.128 112.827C363.169 112.802 367.329 110.31 372.016 106.119C376.311 102.278 381.945 96.1822 384.392 88.9508C384.533 88.5309 384.988 88.3058 385.408 88.4479C385.828 88.5895 386.053 89.0448 385.911 89.4647C383.349 97.0375 377.509 103.364 373.06 107.337C368.26 111.624 364.122 114.103 363.948 114.206C363.82 114.283 363.679 114.319 363.539 114.319Z" fill="#222F59"/>
</g>
</g>
</g>
</svg>
